<svg width="1500" height="320" viewBox="0 0 1500 320" xmlns="http://www.w3.org/2000/svg" role="img" aria-labelledby="title desc">
  <title id="title">LangGraph Workflow Diagram</title>
  <desc id="desc">Constrained orchestration flow from intent parsing to planning, context, tools, validation, generation, and compliance.</desc>
  <defs>
    <style>
      .bg { fill: #0f1115; }
      .title { fill: #f3f4f6; font-family: Segoe UI, Arial, sans-serif; font-size: 28px; font-weight: 600; }
      .subtitle { fill: #9ca3af; font-family: Segoe UI, Arial, sans-serif; font-size: 15px; }
      .box { fill: #1f1f1f; stroke: #d4d4d8; stroke-width: 2; rx: 12; }
      .text { fill: #f3f4f6; font-family: Segoe UI, Arial, sans-serif; font-size: 15px; text-anchor: middle; dominant-baseline: middle; }
      .arrow { fill: none; stroke: #d4d4d8; stroke-width: 1.9; marker-end: url(#arrowhead); }
    </style>
    <marker id="arrowhead" markerWidth="7" markerHeight="7" refX="5.8" refY="3.5" orient="auto" markerUnits="strokeWidth">
      <path d="M 0 0 L 7 3.5 L 0 7 z" fill="#d4d4d8" />
    </marker>
  </defs>
  <rect class="bg" width="1500" height="320" />
  <text class="title" x="70" y="48">LangGraph Workflow Diagram</text>
  <text class="subtitle" x="70" y="74">Core node sequence for the constrained hybrid workflow</text>

  <rect class="box" x="50" y="140" width="170" height="78" />
  <rect class="box" x="245" y="140" width="170" height="78" />
  <rect class="box" x="440" y="140" width="170" height="78" />
  <rect class="box" x="635" y="140" width="170" height="78" />
  <rect class="box" x="830" y="140" width="170" height="78" />
  <rect class="box" x="1025" y="140" width="170" height="78" />
  <rect class="box" x="1220" y="140" width="170" height="78" />

  <text class="text" x="135" y="179">parse_intent</text>
  <text class="text" x="330" y="179">plan_capabilities</text>
  <text class="text" x="525" y="179">gather_context</text>
  <text class="text" x="720" y="179">run_tools</text>
  <text class="text" x="915" y="179">validate_tool_results</text>
  <text class="text" x="1110" y="179">generate_answer</text>
  <text class="text" x="1305" y="179">compliance_check</text>

  <path class="arrow" d="M 220 179 L 245 179" />
  <path class="arrow" d="M 415 179 L 440 179" />
  <path class="arrow" d="M 610 179 L 635 179" />
  <path class="arrow" d="M 805 179 L 830 179" />
  <path class="arrow" d="M 1000 179 L 1025 179" />
  <path class="arrow" d="M 1195 179 L 1220 179" />
</svg>
